<svg width="265" height="90" viewBox="0 0 265 90" fill="none" xmlns="http://www.w3.org/2000/svg">
<path d="M0.680001 0.799995H8.84V68H0.680001V0.799995ZM35.24 0.799995H45.32L16.232 32.288L46.76 68H36.68L6.344 32.48L35.24 0.799995ZM84.74 23.84L55.94 89.12H47.3L59.396 61.76L42.5 23.84H51.62L65.636 58.4L62.468 58.016L76.1 23.84H84.74ZM120.301 41.12C120.301 37.472 119.501 34.72 117.901 32.864C116.301 31.008 113.965 30.08 110.893 30.08C108.653 30.08 106.669 30.56 104.941 31.52C103.277 32.416 101.965 33.696 101.005 35.36C100.109 37.024 99.6613 38.944 99.6613 41.12V68H91.9813V23.84H99.6613V30.752C101.133 28.064 102.957 26.08 105.133 24.8C107.373 23.52 109.933 22.88 112.813 22.88C117.485 22.88 121.165 24.448 123.853 27.584C126.605 30.656 127.981 34.848 127.981 40.16V68H120.301V41.12ZM159.507 68.96C155.411 68.96 151.763 68 148.563 66.08C145.427 64.096 142.963 61.376 141.171 57.92C139.443 54.464 138.579 50.464 138.579 45.92C138.579 41.312 139.475 37.28 141.267 33.824C143.123 30.368 145.683 27.68 148.947 25.76C152.275 23.84 156.115 22.88 160.467 22.88C164.819 22.88 168.531 23.808 171.603 25.664C174.739 27.456 177.139 30.048 178.803 33.44C180.467 36.832 181.299 40.864 181.299 45.536C181.299 45.984 181.267 46.464 181.203 46.976C181.203 47.424 181.203 47.712 181.203 47.84H143.475V41.312H175.155L172.083 45.728C172.275 45.408 172.467 44.928 172.659 44.288C172.851 43.584 172.947 43.008 172.947 42.56C172.947 39.936 172.403 37.664 171.315 35.744C170.291 33.824 168.851 32.32 166.995 31.232C165.139 30.144 162.963 29.6 160.467 29.6C157.523 29.6 154.995 30.24 152.883 31.52C150.835 32.736 149.235 34.528 148.083 36.896C146.995 39.2 146.419 42.048 146.355 45.44C146.355 48.896 146.899 51.84 147.987 54.272C149.075 56.704 150.675 58.56 152.787 59.84C154.899 61.12 157.459 61.76 160.467 61.76C163.475 61.76 166.131 61.12 168.435 59.84C170.739 58.496 172.691 56.48 174.291 53.792L180.531 57.728C178.227 61.44 175.315 64.256 171.795 66.176C168.339 68.032 164.243 68.96 159.507 68.96ZM242.668 23.84H264.748V31.04H242.668V23.84ZM249.868 8.48H257.548V68H249.868V8.48Z" fill="black"/>
<mask id="mask0_52_2" style="mask-type:alpha" maskUnits="userSpaceOnUse" x="185" y="16" width="60" height="60">
<rect x="185" y="16" width="60" height="60" fill="#D9D9D9"/>
</mask>
<g mask="url(#mask0_52_2)">
<path d="M211.324 45.4375V25.375C211.324 24.8333 211.497 24.3854 211.843 24.0313C212.189 23.6771 212.627 23.5 213.157 23.5H230.516C231.045 23.5 231.483 23.6771 231.83 24.0313C232.176 24.3854 232.349 24.8333 232.349 25.375V37.375C232.349 37.9167 232.176 38.3646 231.83 38.7188C231.483 39.0729 231.045 39.25 230.516 39.25H217.68L211.324 45.4375ZM229.599 68.5C224.872 68.5 220.054 67.3333 215.144 65C210.234 62.6667 205.68 59.3542 201.483 55.0625C197.286 50.7708 194.047 46.1146 191.765 41.0937C189.483 36.0729 188.342 31.1458 188.342 26.3125C188.342 25.5208 188.607 24.8542 189.136 24.3125C189.666 23.7708 190.318 23.5 191.092 23.5H199.649C200.22 23.5 200.709 23.7083 201.116 24.125C201.524 24.5417 201.809 25.0625 201.972 25.6875L203.622 33.5625C203.704 34.1458 203.694 34.6771 203.592 35.1562C203.49 35.6354 203.276 36.0417 202.95 36.375L196.838 42.6875C197.897 44.5208 199.018 46.2292 200.199 47.8125C201.381 49.3958 202.685 50.8958 204.111 52.3125C205.619 53.8958 207.208 55.3437 208.879 56.6562C210.549 57.9687 212.301 59.125 214.135 60.125L219.942 54C220.349 53.5417 220.818 53.2292 221.347 53.0625C221.877 52.8958 222.407 52.8542 222.937 52.9375L230.21 54.5625C230.821 54.7292 231.331 55.0625 231.738 55.5625C232.146 56.0625 232.349 56.625 232.349 57.25V65.6875C232.349 66.4792 232.084 67.1458 231.555 67.6875C231.025 68.2292 230.373 68.5 229.599 68.5Z" fill="black"/>
</g>
</svg>
